<svg id="4e6ffffa-2903-4f2b-91d8-53622339a222" data-name="Слой 1" xmlns="http://www.w3.org/2000/svg" viewBox="0 0 53.76 46.9"><defs><style>.\31 d319a51-530b-4a25-bfd5-af895afb4ecc{fill:#fdc01c;}</style></defs><title>shops</title><path class="1d319a51-530b-4a25-bfd5-af895afb4ecc" d="M42.44,1.38A1.61,1.61,0,0,1,44.08,0c2.68,0,5.36,0,8,0a1.89,1.89,0,0,1,1.09.44,1.48,1.48,0,0,1,.43,1.74A1.64,1.64,0,0,1,52,3.33c-2,0-4,0-6,0a0.62,0.62,0,0,0-.73.58Q43.62,10.48,42,17.05,39.49,27,37,37a1.71,1.71,0,0,1-2,1.55H26.82c-6.22,0-12.43,0-18.65,0a2.41,2.41,0,0,1-1.28-.42,1.54,1.54,0,0,1-.46-1.79,1.62,1.62,0,0,1,1.63-1.08H19.14c4.76,0,9.52,0,14.28,0a0.59,0.59,0,0,0,.73-0.58,3.44,3.44,0,0,1,.09-0.4l1-4-0.69,0H7A1.7,1.7,0,0,1,5,28.75q-2.51-10-5-20a1.63,1.63,0,0,1,1.21-2,3.4,3.4,0,0,1,.86-0.08h39C41.56,4.88,42,3.13,42.44,1.38ZM3.84,10.07c0.49,2,1,3.9,1.46,5.83,0.22,0.86.22,0.85,1.14,0.85h4.89c-0.28-2.27-.56-4.47-0.83-6.68H3.84Zm29.77,0c-0.27,2.21-.55,4.41-0.83,6.69h1.47c1.3,0,2.6,0,3.9,0a0.64,0.64,0,0,0,.5-0.3c0.55-2.09,1.07-4.19,1.61-6.37H33.61Zm-19.72,0,0.82,6.64h5.66V10.07H13.88Zm16.34,0H23.77v6.62h5.62C29.67,14.48,29.94,12.31,30.22,10.09ZM12.58,26.78l-0.83-6.66H6.36L8,26.78h4.55Zm23.22,0a0.43,0.43,0,0,0,.32-0.24c0.53-2.1,1-4.21,1.56-6.31a0.53,0.53,0,0,0,0-.17H33.47c-1.15,0-1.14,0-1.27,1.15C32,23,31.76,24.77,31.55,26.54c0,0.07,0,.14,0,0.28C33,26.82,34.39,26.83,35.8,26.81ZM20.36,20.13H15.14L16,26.78h4.39V20.13Zm8.61,0h-5.2v6.67h4.36Z" transform="translate(0 0)"/><path class="1d319a51-530b-4a25-bfd5-af895afb4ecc" d="M11.74,40.23a3.34,3.34,0,1,0,3.39,3.34A3.33,3.33,0,0,0,11.74,40.23Z" transform="translate(0 0)"/><path class="1d319a51-530b-4a25-bfd5-af895afb4ecc" d="M32.34,40.23a3.34,3.34,0,1,0,3.34,3.37A3.31,3.31,0,0,0,32.34,40.23Z" transform="translate(0 0)"/></svg>