<svg id="65c9d367-a976-48a5-972f-f325fcb2f350" data-name="Слой 1" xmlns="http://www.w3.org/2000/svg" viewBox="0 0 22.5 18"><defs><style>.ccd61883-a20f-40a6-89fc-1008c9567009{fill:#fff;}</style></defs><title>photo</title><path class="ccd61883-a20f-40a6-89fc-1008c9567009" d="M-463.57,170.9a1.88,1.88,0,0,1-1.87,1.88H-484.2a1.88,1.88,0,0,1-1.87-1.87V156.65a1.88,1.88,0,0,1,1.88-1.87h18.75a1.88,1.88,0,0,1,1.88,1.88V170.9Zm-20.62-14.62a0.39,0.39,0,0,0-.37.38V170.9a0.39,0.39,0,0,0,.38.38h18.75a0.39,0.39,0,0,0,.38-0.37V156.65a0.39,0.39,0,0,0-.37-0.37H-484.2Zm3.38,6a2.25,2.25,0,0,1-2.25-2.25,2.25,2.25,0,0,1,2.25-2.25,2.25,2.25,0,0,1,2.25,2.25A2.25,2.25,0,0,1-480.82,162.28Zm14.25,7.5h-16.5v-2.25l3.75-3.75,1.88,1.88,6-6,4.88,4.88v5.25Z" transform="translate(486.07 -154.78)"/></svg>